<svg viewBox="0 0 200 200" xmlns="http://www.w3.org/2000/svg">
  <defs>
    <radialGradient id="galaxyGradient">
      <stop offset="0%" stop-color="#D1A3FF"/>
      <stop offset="100%" stop-color="#9C6FD8"/>
    </radialGradient>
  </defs>

  <!-- Purple galaxy blob body -->
  <path d="M100,20 C60,20 30,50 30,90 C30,110 35,128 45,142 C45,160 60,180 100,180 C140,180 155,160 155,142 C165,128 170,110 170,90 C170,50 140,20 100,20 Z" fill="url(#galaxyGradient)" stroke="#8B5FD8" stroke-width="2"/>

  <!-- Sparkles -->
  <circle cx="60" cy="50" r="3" fill="#FFF" opacity="0.8"/>
  <circle cx="140" cy="60" r="2" fill="#FFF" opacity="0.8"/>
  <circle cx="70" cy="120" r="2.5" fill="#FFF" opacity="0.8"/>
  <circle cx="130" cy="130" r="2" fill="#FFF" opacity="0.8"/>
  <circle cx="100" cy="45" r="2" fill="#FFF" opacity="0.8"/>

  <!-- Cute eyes -->
  <circle cx="75" cy="80" r="8" fill="#333"/>
  <circle cx="125" cy="80" r="8" fill="#333"/>
  <circle cx="77" cy="77" r="3" fill="#FFF"/>
  <circle cx="127" cy="77" r="3" fill="#FFF"/>

  <!-- Blushing cheeks -->
  <ellipse cx="55" cy="95" rx="12" ry="8" fill="#B794F6" opacity="0.6"/>
  <ellipse cx="145" cy="95" rx="12" ry="8" fill="#B794F6" opacity="0.6"/>

  <!-- Sweet smile -->
  <path d="M 85,105 Q 100,115 115,105" stroke="#333" stroke-width="3" fill="none" stroke-linecap="round"/>
</svg>
