<svg viewBox="0 0 200 200" xmlns="http://www.w3.org/2000/svg">
  <defs>
    <linearGradient id="rainbowGradient" x1="0%" y1="0%" x2="100%" y2="100%">
      <stop offset="0%" stop-color="#FF6B9D"/>
      <stop offset="25%" stop-color="#FFA06B"/>
      <stop offset="50%" stop-color="#FFE66B"/>
      <stop offset="75%" stop-color="#6BFFD5"/>
      <stop offset="100%" stop-color="#6B9DFF"/>
    </linearGradient>
  </defs>

  <!-- Rainbow gradient blob body -->
  <path d="M100,20 C60,20 30,50 30,90 C30,110 35,128 45,142 C45,160 60,180 100,180 C140,180 155,160 155,142 C165,128 170,110 170,90 C170,50 140,20 100,20 Z" fill="url(#rainbowGradient)" stroke="#FF6B9D" stroke-width="3" opacity="0.9"/>

  <!-- Unicorn horn (golden) -->
  <path d="M 95,20 L 100,5 L 105,20 Z" fill="#FFD700" stroke="#FFA500" stroke-width="2"/>

  <!-- Horn spirals -->
  <path d="M 98,18 L 100,5" stroke="#FFA500" stroke-width="1" fill="none"/>
  <path d="M 102,15 L 100,5" stroke="#FFA500" stroke-width="1" fill="none"/>

  <!-- Sparkles around -->
  <circle cx="50" cy="45" r="3" fill="#FFD700" opacity="0.8"/>
  <circle cx="150" cy="50" r="3" fill="#FFD700" opacity="0.8"/>
  <circle cx="60" cy="130" r="2.5" fill="#FFD700" opacity="0.8"/>
  <circle cx="140" cy="135" r="2.5" fill="#FFD700" opacity="0.8"/>
  <circle cx="100" cy="160" r="2" fill="#FFD700" opacity="0.8"/>
  <circle cx="75" cy="110" r="2" fill="#FFF" opacity="0.9"/>
  <circle cx="125" cy="115" r="2" fill="#FFF" opacity="0.9"/>

  <!-- Cute eyes with sparkle -->
  <circle cx="75" cy="80" r="9" fill="#333"/>
  <circle cx="125" cy="80" r="9" fill="#333"/>
  <circle cx="78" cy="77" r="4" fill="#FFF"/>
  <circle cx="128" cy="77" r="4" fill="#FFF"/>

  <!-- Blushing cheeks -->
  <ellipse cx="50" cy="95" rx="13" ry="9" fill="#FF9EC7" opacity="0.6"/>
  <ellipse cx="150" cy="95" rx="13" ry="9" fill="#FF9EC7" opacity="0.6"/>

  <!-- Sweet smile -->
  <path d="M 85,105 Q 100,118 115,105" stroke="#333" stroke-width="3" fill="none" stroke-linecap="round"/>
</svg>
